<svg width="24" height="24" viewBox="0 0 24 24" fill="none" xmlns="http://www.w3.org/2000/svg">
<rect width="24" height="24" rx="6" fill="#FF641E"/>
<g clip-path="url(#clip0_2441_1892)">
<path d="M10.9902 17.3242C10.9894 17.3712 10.9698 17.4161 10.9357 17.449C10.9015 17.4819 10.8555 17.5002 10.8077 17.5H8.31664C8.26857 17.5005 8.22224 17.4823 8.18771 17.4494C8.15319 17.4165 8.13326 17.3715 8.13226 17.3242V10.9162C8.13301 10.8688 8.15283 10.8236 8.18738 10.7904C8.22193 10.7573 8.26841 10.739 8.31664 10.7395H10.8077C10.8557 10.7393 10.9018 10.7577 10.936 10.7908C10.9702 10.8239 10.9897 10.869 10.9902 10.9162V17.3242Z" fill="white"/>
<path d="M15.8668 17.3242C15.866 17.3714 15.8463 17.4164 15.8119 17.4493C15.7776 17.4823 15.7313 17.5005 15.6833 17.5H13.312C13.264 17.5005 13.2176 17.4823 13.1831 17.4494C13.1486 17.4165 13.1287 17.3715 13.1277 17.3242V11.7962C13.1277 10.8302 13.0697 9.83909 12.5631 9.33977C12.1269 8.91058 11.3152 8.81146 10.4722 8.79089H6.17348C6.12541 8.79064 6.07918 8.80906 6.04483 8.84215C6.01048 8.87524 5.9908 8.92033 5.99005 8.96762V17.3242C5.9888 17.3716 5.96867 17.4166 5.93399 17.4495C5.89932 17.4824 5.85288 17.5005 5.80472 17.5H3.42868C3.38152 17.4993 3.3365 17.4805 3.30315 17.4477C3.2698 17.4149 3.25074 17.3706 3.25 17.3242V6.67673C3.2505 6.62952 3.26998 6.58444 3.30417 6.55132C3.33837 6.5182 3.3845 6.49975 3.43248 6.5H10.2755C12.0642 6.5 13.9346 6.58042 14.8565 7.48836C15.7784 8.3963 15.8668 10.2402 15.8668 11.9991V17.3242Z" fill="white"/>
<path d="M20.75 17.3242C20.749 17.3715 20.7291 17.4165 20.6945 17.4494C20.66 17.4823 20.6137 17.5005 20.5656 17.5H18.1943C18.1463 17.5005 18.0999 17.4823 18.0654 17.4494C18.0309 17.4165 18.0109 17.3715 18.0099 17.3242V6.67674C18.0107 6.62928 18.0305 6.58405 18.0651 6.55094C18.0996 6.51782 18.1461 6.49951 18.1943 6.50001H20.5656C20.6138 6.49975 20.6601 6.51814 20.6946 6.55121C20.7291 6.58427 20.749 6.62936 20.75 6.67674V17.3242Z" fill="white"/>
</g>
<defs>
<clipPath id="clip0_2441_1892">
<rect width="17.5" height="11" fill="white" transform="translate(3.25 6.5)"/>
</clipPath>
</defs>
</svg>
