<svg width="32" height="32" viewBox="0 0 32 32" fill="none" xmlns="http://www.w3.org/2000/svg">
<g id="success-&#226;&#128;&#168;large">
<g id="success-&#226;&#128;&#168;large_2">
<path d="M29 16C29 23.1797 23.1797 29 16 29C8.8203 29 3 23.1797 3 16C3 8.8203 8.8203 3 16 3C23.1797 3 29 8.8203 29 16ZM27.5 16C27.5 9.64873 22.3513 4.5 16 4.5C9.64873 4.5 4.5 9.64873 4.5 16C4.5 22.3513 9.64873 27.5 16 27.5C22.3513 27.5 27.5 22.3513 27.5 16Z" fill="#41A674"/>
<path d="M22.0303 11.9697C22.3232 12.2626 22.3232 12.7374 22.0303 13.0303L15.0303 20.0303C14.8897 20.171 14.6989 20.25 14.5 20.25C14.3011 20.25 14.1103 20.171 13.9697 20.0303L9.46967 15.5303C9.17678 15.2374 9.17678 14.7626 9.46967 14.4697C9.76256 14.1768 10.2374 14.1768 10.5303 14.4697L14.5 18.4393L20.9697 11.9697C21.2626 11.6768 21.7374 11.6768 22.0303 11.9697Z" fill="#41A674"/>
</g>
</g>
</svg>
