<svg width="24" height="24" fill="none" xmlns="http://www.w3.org/2000/svg"><rect width="24" height="24" rx="6" fill="#FF641E"/><g clip-path="url('#clip0_2441_1892')" fill="#fff"><path d="M10.99 17.324c0 .047-.02.092-.054.125a.184.184 0 0 1-.128.051H8.317a.184.184 0 0 1-.13-.05.178.178 0 0 1-.055-.126v-6.408c.001-.047.02-.092.055-.126a.184.184 0 0 1 .13-.05h2.49a.177.177 0 0 1 .182.177v6.407Z"/><path d="M15.867 17.324c-.001.047-.02.092-.055.125a.183.183 0 0 1-.129.051h-2.371a.184.184 0 0 1-.129-.05.178.178 0 0 1-.055-.126v-5.528c0-.966-.058-1.957-.565-2.456-.436-.43-1.248-.529-2.09-.55h-4.3a.184.184 0 0 0-.128.052.178.178 0 0 0-.055.126v8.356a.18.18 0 0 1-.056.125.185.185 0 0 1-.13.051H3.43a.183.183 0 0 1-.126-.052.177.177 0 0 1-.053-.124V6.677c0-.047.02-.093.054-.126a.183.183 0 0 1 .128-.051h6.843c1.79 0 3.66.08 4.582.988.921.908 1.01 2.752 1.01 4.511v5.325ZM20.75 17.324a.178.178 0 0 1-.055.125.184.184 0 0 1-.13.051h-2.37a.184.184 0 0 1-.13-.05.178.178 0 0 1-.055-.126V6.677c0-.048.02-.093.055-.126a.184.184 0 0 1 .13-.051h2.37c.049 0 .095.018.13.051a.18.18 0 0 1 .055.126v10.647Z"/></g><defs><clipPath id="clip0_2441_1892"><path fill="#fff" transform="translate(3.25 6.5)" d="M0 0h17.5v11H0z"/></clipPath></defs></svg>